<?xml version="1.0" encoding="UTF-8"?>
<svg version="1.1" xmlns="http://www.w3.org/2000/svg" width="80" height="80">
<path d="M0 0 C26.4 0 52.8 0 80 0 C80 26.4 80 52.8 80 80 C53.6 80 27.2 80 0 80 C0 53.6 0 27.2 0 0 Z " fill="#010101" transform="translate(0,0)"/>
<path d="M0 0 C2.9375 -0.4375 2.9375 -0.4375 6 0 C7.9375 1.5625 7.9375 1.5625 9 4 C8.56363636 10.43636364 8.56363636 10.43636364 7 12 C3.5625 12.25 3.5625 12.25 0 12 C-2.31332486 8.53001271 -2.33957563 7.07490752 -2 3 C-1.34 2.01 -0.68 1.02 0 0 Z " fill="#E1E1E1" transform="translate(44,36)"/>
<path d="M0 0 C2.5625 0.3125 2.5625 0.3125 4.375 1.375 C6.209421 4.36800269 5.87357576 6.89066663 5.5625 10.3125 C3.5625 12.3125 3.5625 12.3125 0.0625 12.625 C-1.67 12.4703125 -1.67 12.4703125 -3.4375 12.3125 C-5.4375 9.3125 -5.4375 9.3125 -5.1875 5.75 C-4.35190798 1.92020324 -4.00005397 0.51282743 0 0 Z " fill="#D2D2D2" transform="translate(20.4375,35.6875)"/>
<path d="M0 0 C6.57692308 0.57692308 6.57692308 0.57692308 8 2 C8.27314815 7.73611111 8.27314815 7.73611111 8 10 C6 12 6 12 3 12.25 C0 12 0 12 -2 10 C-2.265625 8.125 -2.265625 8.125 -2.25 6 C-2.25515625 5.29875 -2.2603125 4.5975 -2.265625 3.875 C-2 2 -2 2 0 0 Z " fill="#E3E3E3" transform="translate(69,36)"/>
<path d="M0 0 C0.99 0 1.98 0 3 0 C3 3.96 3 7.92 3 12 C1.68 11.67 0.36 11.34 -1 11 C-2.25 8.4375 -2.25 8.4375 -3 6 C-3.66 6 -4.32 6 -5 6 C-5 7.98 -5 9.96 -5 12 C-5.66 12 -6.32 12 -7 12 C-7 8.37 -7 4.74 -7 1 C-3 2 -3 2 -1 5 C-0.67 3.35 -0.34 1.7 0 0 Z " fill="#9A9A9A" transform="translate(11,36)"/>
<path d="M0 0 C3 0.1875 3 0.1875 6 1 C6.66 1.99 7.32 2.98 8 4 C5.69 3.67 3.38 3.34 1 3 C1 4.98 1 6.96 1 9 C2.32 9.33 3.64 9.66 5 10 C5 9.34 5 8.68 5 8 C4.34 8 3.68 8 3 8 C3 7.34 3 6.68 3 6 C4.65 6 6.3 6 8 6 C8 7.98 8 9.96 8 12 C6.54257537 12.08096803 5.08387193 12.13917774 3.625 12.1875 C2.81289063 12.22230469 2.00078125 12.25710937 1.1640625 12.29296875 C0.44992188 12.19628906 -0.26421875 12.09960938 -1 12 C-3 9 -3 9 -2.75 5.4375 C-2 2 -2 2 0 0 Z " fill="#D0D0D0" transform="translate(57,36)"/>
<path d="M0 0 C0.99 0 1.98 0 3 0 C3 3.3 3 6.6 3 10 C4.65 10 6.3 10 8 10 C8 10.66 8 11.32 8 12 C5.36 12 2.72 12 0 12 C0 8.04 0 4.08 0 0 Z " fill="#CACACA" transform="translate(32,36)"/>
<path d="M0 0 C3.69230769 0.69230769 3.69230769 0.69230769 5 2 C5.125 4.5 5.125 4.5 5 7 C4 8 4 8 1.4375 8.0625 C0.633125 8.041875 -0.17125 8.02125 -1 8 C-1.04241723 5.66705225 -1.04092937 3.33297433 -1 1 C-0.67 0.67 -0.34 0.34 0 0 Z " fill="#1D1D1D" transform="translate(19,38)"/>
<path d="M0 0 C2.125 0.375 2.125 0.375 4 1 C4 2.98 4 4.96 4 7 C2.35 7.33 0.7 7.66 -1 8 C-1.625 5.125 -1.625 5.125 -2 2 C-1.34 1.34 -0.68 0.68 0 0 Z " fill="#191919" transform="translate(46,38)"/>
<path d="M0 0 C2.4164124 0.48328248 4.65832183 1.21944061 7 2 C7 2.66 7 3.32 7 4 C5.35 4 3.7 4 2 4 C2 4.66 2 5.32 2 6 C2.66 6 3.32 6 4 6 C4 6.66 4 7.32 4 8 C2.35 7.67 0.7 7.34 -1 7 C-1.04254356 5.00045254 -1.04080783 2.99958364 -1 1 C-0.67 0.67 -0.34 0.34 0 0 Z " fill="#191919" transform="translate(58,38)"/>
<path d="M0 0 C1.67542976 0.28604898 3.34385343 0.61781233 5 1 C5 2.65 5 4.3 5 6 C3.34385343 6.38218767 1.67542976 6.71395102 0 7 C-1 6 -1 6 -1.125 3.5 C-1 1 -1 1 0 0 Z " fill="#0F0F0F" transform="translate(70,39)"/>
<path d="M0 0 C1.32 0.33 2.64 0.66 4 1 C4.33 1.99 4.66 2.98 5 4 C4.34 4 3.68 4 3 4 C2.67 6.31 2.34 8.62 2 11 C1.34 11 0.68 11 0 11 C0 7.37 0 3.74 0 0 Z " fill="#E6E6E6" transform="translate(4,37)"/>
<path d="M0 0 C0.66 0.33 1.32 0.66 2 1 C2.125 3.375 2.125 3.375 2 6 C0 8 0 8 -3.625 8.125 C-4.73875 8.08375 -5.8525 8.0425 -7 8 C-6.67 7.01 -6.34 6.02 -6 5 C-4.35 5 -2.7 5 -1 5 C-0.67 3.35 -0.34 1.7 0 0 Z " fill="#E6E6E6" transform="translate(24,40)"/>
<path d="M0 0 C1.65 0 3.3 0 5 0 C5 1.98 5 3.96 5 6 C2.69 6 0.38 6 -2 6 C-0.68 4.68 0.64 3.36 2 2 C1.34 2 0.68 2 0 2 C0 1.34 0 0.68 0 0 Z " fill="#DEDEDE" transform="translate(60,42)"/>
<path d="M0 0 C0.66 0 1.32 0 2 0 C2.268125 0.94875 2.53625 1.8975 2.8125 2.875 C3.74986588 6.25267273 3.74986588 6.25267273 7 8 C4.625 8.125 4.625 8.125 2 8 C0 6 0 6 -0.125 2.875 C-0.08375 1.92625 -0.0425 0.9775 0 0 Z " fill="#EFEFEF" transform="translate(67,40)"/>
<path d="M0 0 C0.33 0 0.66 0 1 0 C0.67 2.31 0.34 4.62 0 7 C-0.99 7.33 -1.98 7.66 -3 8 C-3.99 7.34 -4.98 6.68 -6 6 C-5.01 5.67 -4.02 5.34 -3 5 C-1.8499169 3.03327085 -1.8499169 3.03327085 -1 1 C-0.67 0.67 -0.34 0.34 0 0 Z " fill="#C3C3C3" transform="translate(52,40)"/>
<path d="M0 0 C0.33 0.66 0.66 1.32 1 2 C1.66 2 2.32 2 3 2 C2.67 4.97 2.34 7.94 2 11 C1.67 11 1.34 11 1 11 C0.63890458 9.35567294 0.28629924 7.7094792 -0.0625 6.0625 C-0.25972656 5.14597656 -0.45695312 4.22945312 -0.66015625 3.28515625 C-0.77230469 2.53105469 -0.88445313 1.77695312 -1 1 C-0.67 0.67 -0.34 0.34 0 0 Z " fill="#1B1B1B" transform="translate(25,34)"/>
<path d="M0 0 C0.33 0 0.66 0 1 0 C1 3.63 1 7.26 1 11 C0.01 10.67 -0.98 10.34 -2 10 C-2 9.01 -2 8.02 -2 7 C-1.34 7 -0.68 7 0 7 C0 4.69 0 2.38 0 0 Z " fill="#F6F6F6" transform="translate(12,37)"/>
<path d="M0 0 C1.65 0 3.3 0 5 0 C5 0.99 5 1.98 5 3 C2.69 3.33 0.38 3.66 -2 4 C-1.34 2.68 -0.68 1.36 0 0 Z " fill="#A7A7A7" transform="translate(69,36)"/>
</svg>
