<svg width="60" height="60" viewBox="0 0 60 60" fill="none" xmlns="http://www.w3.org/2000/svg">
<g clip-path="url(#clip0_97_318)">
<circle cx="30" cy="30" r="29.5" fill="#2A2A33" stroke="#3E3E4B"/>
<path d="M49.355 34.3498L40.7056 19.3463C38.8094 16.2192 34.1852 16.186 32.3555 19.4794L23.2737 35.0816C21.577 37.9426 23.6728 41.5353 27.0661 41.5353H45.2631C48.6896 41.5353 51.2512 37.8427 49.355 34.3498Z" fill="#3156AA"/>
<path d="M36.8799 35.5141L36.3476 34.5826C35.8486 33.7176 34.7508 31.8547 34.7508 31.8547L27.4321 19.1468C25.5359 16.3191 21.0449 16.0862 19.1487 19.6458L10.6323 34.383C8.86917 37.4768 10.965 41.5021 14.7907 41.5355H32.8878H40.6058H45.1967C40.506 41.5687 39.0091 39.1401 36.8799 35.5141Z" fill="#1972E2"/>
<path d="M36.8799 35.514L36.3476 34.5826C35.8486 33.7177 34.7508 31.8547 34.7508 31.8547L30.0269 23.538L23.2404 35.1149C21.5439 37.9758 23.6397 41.5686 27.033 41.5686H32.8546H40.5725H45.1967C40.4728 41.5354 39.0089 39.1402 36.8799 35.514Z" fill="url(#paint0_linear_97_318)"/>
</g>
<defs>
<linearGradient id="paint0_linear_97_318" x1="20.8252" y1="29.8547" x2="41.8493" y2="37.6239" gradientUnits="userSpaceOnUse">
<stop stop-color="#264CA2" stop-opacity="0"/>
<stop offset="1" stop-color="#234588"/>
</linearGradient>
<clipPath id="clip0_97_318">
<rect width="60" height="60" fill="white"/>
</clipPath>
</defs>
</svg>
