<svg width="60" height="60" viewBox="0 0 60 60" fill="none" xmlns="http://www.w3.org/2000/svg">
<g clip-path="url(#clip0_98_2895)">
<circle cx="30" cy="30" r="29.5" fill="#2A2A33" stroke="#3E3E4B"/>
<path fill-rule="evenodd" clip-rule="evenodd" d="M39.0936 23.0514L41.1311 25.0833L36.9555 29.2164L30.8799 23.2214L24.8042 29.2164L15.9431 20.4429C11.4288 27.0485 12.1075 36.1606 17.9805 42.021C21.3074 45.3408 25.6516 47 30.0298 47C33.9333 47 37.8709 45.6454 41.0277 43.0029L37.2262 39.2085C32.644 42.7649 25.9903 42.4603 21.7807 38.2605C19.6086 36.0926 18.4538 33.2475 18.3858 30.4023L24.8355 36.7699L30.8772 30.741L36.9528 36.7359L44.9299 28.8777L47 30.945V23.0514H39.0936Z" fill="#997CFF"/>
<path fill-rule="evenodd" clip-rule="evenodd" d="M40.9948 16.9884C34.4771 11.5007 24.7699 11.6707 18.4209 17.531L22.2224 21.2915C24.4299 19.3263 27.2127 18.3103 29.9955 18.3103C32.5416 18.3103 35.0538 19.1236 37.1579 20.7488L40.9948 16.9884Z" fill="#997CFF"/>
</g>
<defs>
<clipPath id="clip0_98_2895">
<rect width="60" height="60" fill="white"/>
</clipPath>
</defs>
</svg>
