<svg width="60" height="60" viewBox="0 0 60 60" fill="none" xmlns="http://www.w3.org/2000/svg">
<g clip-path="url(#clip0_98_2904)">
<circle cx="30" cy="30" r="29.5" fill="#2A2A33" stroke="#3E3E4B"/>
<path d="M35.2828 34.7209C35.2828 37.5912 32.9504 39.906 30.0583 39.906C27.1662 39.906 24.8338 37.5912 24.8338 34.7209V29.3275H35.2595V34.7209H35.2828ZM40.0874 24.6285V20.4156H35.2595V29.3275H24.8338V20.3925H20.0059V34.7209C20.0059 40.23 24.5073 44.6744 30.035 44.6744C35.5627 44.6744 40.0641 40.2069 40.0641 34.7209V24.6285H40.0874Z" fill="url(#paint0_linear_98_2904)"/>
<path d="M45.1253 20.3925C45.1253 22.7304 43.2361 24.6053 40.8804 24.6285C40.8804 24.6285 40.8804 24.6285 40.8571 24.6285H19.0962C16.7405 24.6285 14.828 22.7304 14.828 20.4156H10C10 25.5312 13.9883 29.3506 19.1662 29.3506H40.927C46.1049 29.3506 49.9999 25.5775 49.9999 20.4388L45.1253 20.3925Z" fill="url(#paint1_linear_98_2904)"/>
<path d="M35.2827 34.7208C35.2827 37.5911 32.9503 39.9059 30.0582 39.9059C27.1661 39.9059 24.8337 37.5911 24.8337 34.7208V29.3274H35.2593V34.7208H35.2827ZM35.2827 29.3274H24.857V20.4155H20.0291V34.744C20.0291 40.2531 24.5305 44.6975 30.0582 44.6975C35.5859 44.6975 40.0873 40.23 40.0873 34.744V29.3274H35.2827Z" fill="url(#paint2_linear_98_2904)"/>
</g>
<defs>
<linearGradient id="paint0_linear_98_2904" x1="23.7044" y1="28.9131" x2="51.3113" y2="35.4366" gradientUnits="userSpaceOnUse">
<stop stop-color="#00FFC8"/>
<stop offset="1" stop-color="#00758C"/>
</linearGradient>
<linearGradient id="paint1_linear_98_2904" x1="9.9998" y1="24.8634" x2="49.9859" y2="24.8634" gradientUnits="userSpaceOnUse">
<stop stop-color="#00FFC8"/>
<stop offset="1" stop-color="#00959A"/>
</linearGradient>
<linearGradient id="paint2_linear_98_2904" x1="20.0149" y1="32.5461" x2="40.0919" y2="32.5461" gradientUnits="userSpaceOnUse">
<stop stop-color="#00FFC8"/>
<stop offset="1" stop-color="#00BBAB"/>
</linearGradient>
<clipPath id="clip0_98_2904">
<rect width="60" height="60" fill="white"/>
</clipPath>
</defs>
</svg>
