<svg width="60" height="60" viewBox="0 0 60 60" fill="none" xmlns="http://www.w3.org/2000/svg">
<g clip-path="url(#clip0_98_2913)">
<circle cx="30" cy="30" r="29.5" fill="#2A2A33" stroke="#3E3E4B"/>
<path d="M14.0268 35.9235C13.7709 31.4313 15.6868 26.2967 19.5173 22.4457C28.0717 13.8452 45.6911 15.1289 45.819 15.1289C45.819 15.2569 32.7955 34.1266 17.4734 35.7943C16.4521 35.9235 15.1761 35.9235 14.0268 35.9235Z" fill="#03CA9B"/>
<path d="M15.9417 41.6992C16.3243 42.3404 16.835 43.1109 17.4736 43.6241C22.7081 48.8867 32.1571 47.8603 38.6688 41.442C47.0965 32.9708 45.9472 15.0007 45.9472 15.0007C45.9472 15.1287 36.6262 36.0513 21.8148 40.5435C19.9002 41.314 17.8576 41.5712 15.9417 41.6992Z" fill="#03CA9B"/>
</g>
<defs>
<clipPath id="clip0_98_2913">
<rect width="60" height="60" fill="white"/>
</clipPath>
</defs>
</svg>
