<svg width="60" height="60" viewBox="0 0 60 60" fill="none" xmlns="http://www.w3.org/2000/svg">
<g clip-path="url(#clip0_98_2922)">
<circle cx="30" cy="30" r="29.5" fill="#2A2A33" stroke="#3E3E4B"/>
<path d="M30.1446 48.9995C19.6431 49.071 11.0734 40.6215 11.0004 30.1444C10.929 19.643 19.3786 11.0734 29.8558 11.0005C40.3573 10.929 48.927 19.3542 48.9999 29.8556V30C49.0243 40.4528 40.599 48.9509 30.1446 48.9995ZM30.1446 13.8261C21.2132 13.7774 13.9219 20.9471 13.8732 29.9027C13.8246 38.8355 20.9943 46.1253 29.9516 46.1739C38.8845 46.2226 46.1743 39.0529 46.2229 30.1201V30C46.2229 21.0915 39.0532 13.8732 30.1446 13.8261ZM30.821 27.3933L34.4659 22.9276C34.852 22.4686 34.7805 21.7694 34.3215 21.3818C34.1285 21.2374 33.8868 21.1401 33.6451 21.1401C33.3305 21.1401 33.0174 21.2845 32.8243 21.5262L29.4439 25.6544L26.0391 21.5262C25.8461 21.2845 25.533 21.1401 25.2183 21.1401H22.4201C21.8166 21.1401 21.3333 21.6478 21.3333 22.2512C21.3333 22.4929 21.429 22.7346 21.575 22.9276L26.6213 29.0835L20.1994 36.9538C19.8133 37.4129 19.8376 38.0892 20.2951 38.4753C20.7542 38.8614 21.4306 38.8371 21.8166 38.3796L21.8409 38.3552L28.0212 30.7995L30.821 27.3933ZM39.2706 21.1401C38.9574 21.1401 38.6428 21.2845 38.4498 21.5262L32.2938 29.0819L29.494 32.5095L25.8476 36.9766C25.4615 37.4357 25.5102 38.112 25.9677 38.4981C26.4267 38.8842 27.1031 38.8355 27.4892 38.378L30.8696 34.2498L34.2501 38.378C34.4431 38.6197 34.7562 38.7641 35.0709 38.7641H37.8707C38.4741 38.7641 38.9574 38.2808 38.9574 37.6773C38.9574 37.4113 38.8617 37.1712 38.6914 36.9766L33.6694 30.8208L40.0913 22.9504C40.4774 22.4671 40.3817 21.7922 39.9226 21.4046C39.7539 21.2374 39.5122 21.1644 39.2706 21.1401Z" fill="#FFBE40"/>
</g>
<defs>
<clipPath id="clip0_98_2922">
<rect width="60" height="60" fill="white"/>
</clipPath>
</defs>
</svg>
