<svg width="60" height="60" viewBox="0 0 60 60" fill="none" xmlns="http://www.w3.org/2000/svg">
<g clip-path="url(#clip0_98_2940)">
<circle cx="30" cy="30" r="29.5" fill="#2A2A33" stroke="#3E3E4B"/>
<path d="M33.4025 23.5883L30.6461 22.0175C30.1166 21.7666 29.5055 21.7666 28.976 22.0175L26.2196 23.5883C25.6221 23.9315 25.6221 24.486 26.2196 24.816L28.976 26.4C29.492 26.664 30.1166 26.664 30.6461 26.4L33.4025 24.816C33.7556 24.6972 33.9456 24.3275 33.8234 23.9975C33.7556 23.8127 33.6062 23.6543 33.4025 23.6015V23.5883Z" fill="white"/>
<path d="M38.2366 25.1063L30.645 29.4506C30.129 29.7146 29.5044 29.7146 28.9748 29.4506L24.1532 26.7048C23.5557 26.3484 23.0533 26.6256 23.0533 27.2989V35.6165C23.1076 35.9861 22.8496 36.3294 22.4694 36.3822C22.2929 36.4086 22.1028 36.369 21.9535 36.2502L21.1388 35.8409C20.6364 35.5505 20.3105 35.0225 20.2833 34.4549V25.4231C20.3241 24.8555 20.6228 24.3274 21.1116 24.0238L28.9477 19.5871C29.4772 19.3363 30.0883 19.3363 30.6178 19.5871L38.2095 23.8522C38.5625 23.9446 38.7798 24.2878 38.6983 24.6442C38.644 24.8687 38.4539 25.0535 38.223 25.1063H38.2366ZM44.1717 21.6477L30.8351 14.1881C30.3055 13.9373 29.6945 13.9373 29.1649 14.1881L15.8283 21.6477C15.3395 21.9645 15.0272 22.4794 15 23.047V37.953C15.0407 38.5206 15.3395 39.0487 15.8283 39.3523L29.1649 46.8119C29.6945 47.0627 30.3055 47.0627 30.8351 46.8119L44.1717 39.3523C44.6605 39.0355 44.9728 38.5206 45 37.953V23.047C44.9593 22.4794 44.6605 21.9513 44.1717 21.6477Z" fill="white"/>
</g>
<defs>
<clipPath id="clip0_98_2940">
<rect width="60" height="60" fill="white"/>
</clipPath>
</defs>
</svg>
