<svg width="60" height="60" viewBox="0 0 60 60" fill="none" xmlns="http://www.w3.org/2000/svg">
<g clip-path="url(#clip0_98_2999)">
<circle cx="30" cy="30" r="29.5" fill="#2A2A33" stroke="#3E3E4B"/>
<path d="M18.7966 39C18.7966 43.9709 22.8099 48 27.7592 48V30C27.7592 34.9709 23.7474 39 18.7966 39Z" fill="#38D102"/>
<path d="M32.2405 30C32.2405 34.9709 36.2538 39 41.203 39V21C41.203 25.9709 37.1912 30 32.2405 30ZM18.7966 21V39C23.7474 39 27.7592 34.9709 27.7592 30C27.7592 25.0291 23.7474 21 18.7966 21Z" fill="#0B5BE0"/>
<path d="M32.2407 12V30C37.1914 30 41.2033 25.9709 41.2033 21C41.2033 16.0291 37.1914 12 32.2407 12Z" fill="#3CEAF3"/>
</g>
<defs>
<clipPath id="clip0_98_2999">
<rect width="60" height="60" fill="white"/>
</clipPath>
</defs>
</svg>
