<svg width="60" height="60" viewBox="0 0 60 60" fill="none" xmlns="http://www.w3.org/2000/svg">
<g clip-path="url(#clip0_98_3008)">
<circle cx="30" cy="30" r="29.5" fill="#2A2A33" stroke="#3E3E4B"/>
<path fill-rule="evenodd" clip-rule="evenodd" d="M20.8511 14H30.89C31.9105 14 32.7411 14.8346 32.7411 15.86V26.0185C32.7411 27.0439 31.9105 27.8785 30.89 27.8785H20.8511C19.8306 27.8785 19 27.0439 19 26.0185V15.86C19 14.8346 19.8306 14 20.8511 14Z" fill="white"/>
<path fill-rule="evenodd" clip-rule="evenodd" d="M33.3108 27.7592H39.8135C40.478 27.7592 41.0001 28.3076 41.0001 28.9515V35.533C41.0001 36.2007 40.4543 36.7253 39.8135 36.7253H33.3108C32.5513 36.7253 32.0055 36.6776 32.0055 37.8938V43.903C32.0055 44.4992 31.5071 45 30.9138 45H24.9569C24.3636 45 23.8652 44.4992 23.8652 43.903V37.8938C23.8652 37.2976 24.3636 36.7969 24.9569 36.7969H30.9138C31.8394 36.7969 32.1242 36.463 32.1242 35.533V28.9515C32.1242 28.2838 32.67 27.7592 33.3108 27.7592Z" fill="white"/>
</g>
<defs>
<clipPath id="clip0_98_3008">
<rect width="60" height="60" fill="white"/>
</clipPath>
</defs>
</svg>
