<svg width="60" height="60" viewBox="0 0 60 60" fill="none" xmlns="http://www.w3.org/2000/svg">
<g clip-path="url(#clip0_98_3017)">
<circle cx="30" cy="30" r="29.5" fill="#2A2A33" stroke="#3E3E4B"/>
<path d="M46.4328 16.1944C45.492 15.8011 44.4067 16.0145 43.6908 16.7448L34.2668 26.2102V31.3531L44.3626 21.226V38.1014H27.5727L25.6362 34.9468L18.8752 41.7378H45.4813C46.8691 41.7378 48 40.6034 48 39.2114V18.5196C47.9893 17.4981 47.3844 16.5878 46.4328 16.1944Z" fill="#952CFF"/>
<path d="M21.4395 38.0893H18.7643L29.9014 26.9177V37.3483H33.5281V24.2343C33.5281 23.2127 32.9125 22.2918 31.9731 21.8984C31.0322 21.505 29.947 21.7185 29.231 22.4488L10 41.7379H17.8128L21.4395 38.0893Z" fill="#952CFF"/>
<path d="M29.7449 38.1H22.4915L18.8647 41.7379H31.0202C32.4079 41.7379 33.5388 40.6035 33.5388 39.2115V38.1H29.7449Z" fill="#952CFF"/>
</g>
<defs>
<clipPath id="clip0_98_3017">
<rect width="60" height="60" fill="white"/>
</clipPath>
</defs>
</svg>
