<svg width="60" height="60" viewBox="0 0 60 60" fill="none" xmlns="http://www.w3.org/2000/svg">
<g clip-path="url(#clip0_98_3026)">
<circle cx="30" cy="30" r="29.5" fill="#2A2A33" stroke="#3E3E4B"/>
<path d="M42.9929 22.5602L42.9846 30.0156L36.5416 26.2837L30.1069 22.5447L36.5571 18.8284L43.0001 15.1049L42.9929 22.5602Z" fill="white"/>
<path d="M30.0998 30L30.0915 37.4554L23.6568 33.7235L17.2222 29.9845L23.6652 26.2682L30.1081 22.5447L30.0998 30Z" fill="#92BE8D"/>
<path d="M17.2293 22.5291L17.2364 15.0737L23.6711 18.8128L30.1069 22.5446L23.6639 26.2681L17.2209 29.9845L17.2293 22.5291Z" fill="#119E5F"/>
<path d="M17.2066 37.4399L17.2221 29.9845L23.6579 33.7235L30.0926 37.4554L23.6496 41.1801L17.1995 44.8952L17.2066 37.4399Z" fill="white"/>
<path d="M36.5429 26.2837L30.107 22.5447L30.0999 30L30.0916 37.4554L36.5274 41.1944L42.962 44.9263L42.9692 37.4709L42.9847 30.0156L36.5429 26.2837Z" fill="#119E5F"/>
</g>
<defs>
<clipPath id="clip0_98_3026">
<rect width="60" height="60" fill="white"/>
</clipPath>
</defs>
</svg>
