<svg width="60" height="60" viewBox="0 0 60 60" fill="none" xmlns="http://www.w3.org/2000/svg">
<g clip-path="url(#clip0_97_1922)">
<circle cx="30" cy="30" r="29.5" fill="#2A2A33" stroke="#3E3E4B"/>
<path d="M38.5081 33.2783V23H40.5749V33.2783H38.5081Z" fill="#F6A500"/>
<path d="M14.429 36.3313H10V26.053H14.2519C16.3187 26.053 17.5205 27.178 17.5205 28.9407C17.5205 30.0804 16.7469 30.8186 16.2124 31.0637C16.8502 31.353 17.6681 32.0026 17.6681 33.3727C17.6681 35.2919 16.3158 36.3313 14.429 36.3313ZM14.0865 27.8423H12.0639V30.2104H14.0865C14.9635 30.2104 15.4536 29.735 15.4536 29.0263C15.4536 28.3206 14.9635 27.8423 14.0865 27.8423ZM14.2194 32.0144H12.0639V34.5419H14.2194C15.1554 34.5419 15.6012 33.9662 15.6012 33.2723C15.6012 32.5784 15.1554 32.0174 14.2194 32.0174V32.0144Z" fill="white"/>
<path d="M23.9721 32.1148V36.3313H21.92V32.1148L18.74 26.053H20.984L22.9594 30.1956L24.9081 26.053H27.1522L23.9721 32.1148Z" fill="white"/>
<path d="M33.0103 36.3313H28.5813V26.053H32.8332C34.9 26.053 36.1018 27.178 36.1018 28.9407C36.1018 30.0804 35.3282 30.8186 34.7937 31.0637C35.4315 31.353 36.2494 32.0026 36.2494 33.3727C36.2494 35.2919 34.8971 36.3313 33.0103 36.3313ZM32.6678 27.8423H30.6452V30.2104H32.6678C33.5448 30.2104 34.0349 29.735 34.0349 29.0263C34.0349 28.3206 33.5448 27.8423 32.6678 27.8423ZM32.8007 32.0144H30.6452V34.5419H32.8007C33.7367 34.5419 34.1825 33.9662 34.1825 33.2723C34.1825 32.5784 33.7367 32.0174 32.8007 32.0174V32.0144Z" fill="white"/>
<path d="M47.2332 27.8423V36.3313H45.1693V27.8423H42.4026V26.053H49.9998V27.8423H47.2332Z" fill="white"/>
</g>
<defs>
<clipPath id="clip0_97_1922">
<rect width="60" height="60" fill="white"/>
</clipPath>
</defs>
</svg>
