<svg width="60" height="60" viewBox="0 0 60 60" fill="none" xmlns="http://www.w3.org/2000/svg">
<g clip-path="url(#clip0_98_3071)">
<circle cx="30" cy="30" r="29.5" fill="#2A2A33" stroke="#3E3E4B"/>
<path d="M28.908 15.0376C31.8617 14.8376 34.8725 15.4375 37.5134 16.7825C41.4326 18.7274 44.5576 22.2173 46.0059 26.3372C46.6587 28.1684 47 30.0845 47 32.0294V39.2091C47 39.4953 47 39.8103 46.9429 40.0966C46.7729 40.8116 46.2616 41.469 45.5803 41.784C45.0975 42.0127 44.5576 42.0415 44.0749 41.9552C42.9951 41.7552 42.1438 40.7253 42.1438 39.609C42.1438 37.3779 42.1438 35.1467 42.1438 32.9156C42.1724 32.2869 42.1724 31.5993 41.8311 31.0556C41.2912 30.0256 39.9286 29.5394 38.8774 29.9681C37.969 30.2831 37.3149 31.2268 37.2863 32.1992C37.2863 34.4591 37.2863 36.7191 37.2863 38.979C37.2863 39.4077 37.3149 39.8377 37.1721 40.2377C36.945 41.0389 36.2922 41.6676 35.4967 41.8963C34.4455 42.1826 33.2529 41.7251 32.7415 40.7527C32.3717 40.1802 32.4002 39.4652 32.4288 38.8078C32.4288 36.5479 32.4288 34.3167 32.4288 32.0568C32.4002 30.9131 31.4632 29.8832 30.3549 29.7394C29.6165 29.6243 28.8495 29.8818 28.3097 30.3968C27.8269 30.8542 27.5712 31.5117 27.5712 32.1705V38.7215C27.5712 39.2652 27.6283 39.8364 27.4298 40.3527C27.117 41.2964 26.1801 41.984 25.186 41.9552C24.1633 42.0127 23.1693 41.2978 22.8565 40.3527C22.6865 39.8665 22.7151 39.3803 22.7151 38.8653C22.7151 36.6054 22.7151 34.3455 22.7151 32.0856C22.7151 30.9707 21.8339 29.9407 20.7555 29.7394C19.7614 29.5394 18.6816 30.0256 18.1703 30.9405C17.9718 31.3117 17.8575 31.7418 17.8575 32.1705V39.5227C17.8575 40.2377 17.5448 40.9526 17.0049 41.4115C16.1808 42.1264 14.8467 42.1839 13.9941 41.5265C13.3685 41.0978 13 40.3541 13 39.5816V32.1445C13 29.3408 13.7099 26.5371 15.0453 24.0485C16.1264 22.0173 17.6318 20.2149 19.4214 18.7849C22.0637 16.5538 25.443 15.2376 28.908 15.0376Z" fill="#7B65FF"/>
</g>
<defs>
<clipPath id="clip0_98_3071">
<rect width="60" height="60" fill="white"/>
</clipPath>
</defs>
</svg>
