<svg width="60" height="60" viewBox="0 0 60 60" fill="none" xmlns="http://www.w3.org/2000/svg">
<g clip-path="url(#clip0_97_2678)">
<circle cx="30" cy="30" r="29.5" fill="#2A2A33" stroke="#3E3E4B"/>
<path fill-rule="evenodd" clip-rule="evenodd" d="M24.8516 30.0032L33.9343 39.4824L39.6673 33.5C40.6924 32.5369 42.2608 32.5797 43.2362 33.5976C44.2117 34.6154 44.2527 36.252 43.3297 37.3217L35.7641 45.2178C34.7478 46.2607 33.118 46.2607 32.1017 45.2178L21.1865 33.8249V40.5966C21.1865 42.0911 20.0254 43.3026 18.5932 43.3026C17.161 43.3026 16 42.0911 16 40.5966V19.4011C16 17.9066 17.161 16.6951 18.5932 16.6951C20.0254 16.6951 21.1865 17.9066 21.1865 19.4011V26.1728L32.1003 14.7828C33.1162 13.7391 34.7467 13.7391 35.7627 14.7828L43.3339 22.6774C44.2569 23.7471 44.2159 25.3837 43.2405 26.4016C42.265 27.4194 40.6967 27.4623 39.6715 26.4991L33.9385 20.5167L24.8516 30.0032ZM33.9385 27.2943C32.8884 27.2937 31.9413 27.9533 31.5391 28.9655C31.1368 29.9778 31.3586 31.1432 32.1009 31.9182C32.8433 32.6933 33.96 32.9253 34.9303 32.5061C35.9005 32.0869 36.5332 31.099 36.5332 30.0032C36.5335 29.2848 36.2604 28.5956 35.7738 28.0873C35.2872 27.579 34.627 27.2932 33.9385 27.2928V27.2943Z" fill="#23AF91"/>
</g>
<defs>
<clipPath id="clip0_97_2678">
<rect width="60" height="60" fill="white"/>
</clipPath>
</defs>
</svg>
