<svg width="60" height="60" viewBox="0 0 60 60" fill="none" xmlns="http://www.w3.org/2000/svg">
<g clip-path="url(#clip0_97_2737)">
<circle cx="30" cy="30" r="29.5" fill="#2A2A33" stroke="#3E3E4B"/>
<path d="M25.7133 38.6928C25.8004 30.5954 34.4092 28.8845 33.4449 20.0377C33.1675 17.4904 31.938 14.4712 29.4438 12.0558C29.3132 11.9294 29.097 12.0354 29.1133 12.215C29.8654 20.3423 24.1316 24.1952 21.5544 27.5816C15.837 35.0929 20.0394 44.723 28.5136 45.9974C28.7012 46.0259 28.8155 45.7974 28.6808 45.6642C26.9414 43.941 25.7133 41.7514 25.7133 38.6928Z" fill="white"/>
<path d="M36.8013 25.7319C36.687 25.6354 36.5116 25.6966 36.483 25.8435C36.2777 26.8934 35.6235 28.6274 33.5264 31.6656C28.0945 39.5346 30.7193 43.0311 33.0912 45.6614C33.6134 46.2843 33.3537 45.5227 34.4648 44.7529C35.9581 43.7193 36.5905 43.5887 38.0062 42.3294C39.6205 40.7123 40.9302 38.1664 41.0567 35.5865C41.3314 29.9833 38.0348 26.7791 36.8013 25.7319Z" fill="#0173E5"/>
</g>
<defs>
<clipPath id="clip0_97_2737">
<rect width="60" height="60" fill="white"/>
</clipPath>
</defs>
</svg>
