<svg width="60" height="60" viewBox="0 0 60 60" fill="none" xmlns="http://www.w3.org/2000/svg">
<g clip-path="url(#clip0_97_2757)">
<circle cx="30" cy="30" r="29.5" fill="#2A2A33" stroke="#3E3E4B"/>
<path d="M14.0018 17C17.8334 17 24.7086 18.1445 30.0962 24.0641C35.6745 18.1102 42.0281 17 46 17V24.2015C43.3071 24.2015 38.6264 24.8958 34.4477 29.9982C38.6264 35.1024 43.2891 35.7967 46 35.7967V43C42.0281 43 35.6727 41.888 30.0962 35.9341C24.7086 41.8537 17.8352 43 14 43V35.7985C16.8332 35.7985 21.9456 34.9125 25.6926 30C21.9456 25.0893 16.8332 24.2033 14.0018 24.2033V17Z" fill="#226CFF"/>
</g>
<defs>
<clipPath id="clip0_97_2757">
<rect width="60" height="60" fill="white"/>
</clipPath>
</defs>
</svg>
