<svg width="60" height="60" viewBox="0 0 60 60" fill="none" xmlns="http://www.w3.org/2000/svg">
<g clip-path="url(#clip0_97_2768)">
<circle cx="30" cy="30" r="29.5" fill="#2A2A33" stroke="#3E3E4B"/>
<path d="M34.0619 25.3226H25.9678C25.6242 25.3226 25.3425 25.6046 25.3425 25.9485V34.0514C25.3425 34.3953 25.6242 34.6773 25.9678 34.6773H34.0619C34.4055 34.6773 34.6872 34.3953 34.6872 34.0514V25.9485C34.6872 25.6046 34.4055 25.3226 34.0619 25.3226Z" fill="white"/>
<path d="M24.7194 16H16.6252C16.2817 16 16 16.282 16 16.6259V24.7288C16 25.0727 16.2817 25.3547 16.6252 25.3547H24.7194C25.063 25.3547 25.3446 25.0727 25.3446 24.7288V16.6259C25.3426 16.282 25.063 16 24.7194 16Z" fill="white"/>
<path d="M43.3747 16H35.2805C34.9369 16 34.6553 16.282 34.6553 16.6259V24.7288C34.6553 25.0727 34.9369 25.3547 35.2805 25.3547H43.3747C43.7183 25.3547 43.9999 25.0727 43.9999 24.7288V16.6259C43.9999 16.282 43.7183 16 43.3747 16Z" fill="white"/>
<path d="M24.7194 34.6454H16.6252C16.2817 34.6454 16 34.9273 16 35.2713V43.3741C16 43.7181 16.2817 44 16.6252 44H24.7194C25.063 44 25.3446 43.7181 25.3446 43.3741V35.2713C25.3426 34.9273 25.063 34.6454 24.7194 34.6454Z" fill="white"/>
<path d="M43.3747 34.6454H35.2805C34.9369 34.6454 34.6553 34.9273 34.6553 35.2713V43.3741C34.6553 43.7181 34.9369 44 35.2805 44H43.3747C43.7183 44 43.9999 43.7181 43.9999 43.3741V35.2713C43.9999 34.9273 43.7183 34.6454 43.3747 34.6454Z" fill="white"/>
</g>
<defs>
<clipPath id="clip0_97_2768">
<rect width="60" height="60" fill="white"/>
</clipPath>
</defs>
</svg>
