<svg width="60" height="60" viewBox="0 0 60 60" fill="none" xmlns="http://www.w3.org/2000/svg">
<g clip-path="url(#clip0_97_2789)">
<circle cx="30" cy="30" r="29.5" fill="#2A2A33" stroke="#3E3E4B"/>
<mask id="mask0_97_2789" style="mask-type:luminance" maskUnits="userSpaceOnUse" x="14" y="14" width="32" height="32">
<path d="M46 14H14V46H46V14Z" fill="white"/>
</mask>
<g mask="url(#mask0_97_2789)">
<path fill-rule="evenodd" clip-rule="evenodd" d="M17.3346 44.3068H19.1883V45.4822H17.3346V44.3068ZM40.4957 36.1929C40.4957 37.7567 39.7397 38.9321 38.6265 39.5224C37.5132 40.1127 35.9443 40.4492 33.2828 40.4492H17.1016V39.6777H33.2051C35.6595 39.6777 37.3113 39.2842 38.1242 38.8389C39.0148 38.3522 39.6207 37.1716 39.6207 36.1877C39.6207 34.6499 38.5851 33.8369 37.798 33.3709C37.3993 33.1327 36.0737 32.5373 32.5786 32.5373H26.4375V31.7657H32.7236C36.664 31.7657 37.4977 32.1541 38.4556 32.7288C39.4757 33.345 40.4957 34.4428 40.4957 36.1929ZM33.3708 24.0298H27.7786V24.6822H33.3708V24.0298ZM21.9637 22.0466H33.5935V22.6991H21.9637V22.0466ZM26.0077 24.0298H18.9864V24.6822H26.0077V24.0298ZM21.1197 19.5871H24.1851V20.1463H21.1197V19.5871ZM26.5876 42.0337H19.1779V42.8466H26.5825V42.0337H26.5876ZM19.1779 36.8661H27.0485V37.5444H19.1779V36.8661ZM23.3876 34.4428H20.7986V35.1211H23.3876V34.4428ZM28.488 36.9127H33.5779V37.4926H28.488V36.9127ZM33.6297 34.4428H24.8789V35.1211H33.6297V34.4428ZM39.8847 24.1334C39.8796 25.635 39.4291 27.1055 38.5851 28.3534C38.4763 28.2913 38.3676 28.2292 38.2588 28.1722C39.2996 27.0797 39.8796 25.635 39.8847 24.1334ZM39.7035 29.1094L39.6621 29.0784C40.6355 27.6803 41.1171 25.9767 41.1171 23.978C41.1171 21.0059 40.097 18.681 38.0569 16.9929C36.0219 15.3049 33.2155 14.4661 29.6375 14.4661H20.7365V15.7088H29.477C32.5164 15.7088 35.2245 16.3871 36.9436 17.7852C38.5436 19.09 39.1287 20.2136 39.5948 21.8913C39.1184 20.3586 37.9999 19.3748 37.3061 18.7949C36.0893 17.7748 34.5773 17.0551 30.4556 17.0551H23.5896V18.2667H30.3003C33.8161 18.2667 35.1106 18.7017 36.2912 19.5767C37.8084 20.7004 38.7456 22.0415 38.7456 23.9729C38.7456 25.7178 38.1346 26.6499 37.1042 27.6182C36.9851 27.5716 36.866 27.525 36.7417 27.4835L36.8556 27.4214C37.9689 26.8052 38.7404 25.6298 38.7404 23.9677C38.7404 22.1554 37.7048 21.0266 36.6847 20.3897C35.732 19.7942 34.8258 19.3903 30.9579 19.3903H26.0232V20.1981H30.8181C34.3132 20.1981 35.6336 20.8195 36.0375 21.0628C36.8245 21.5444 37.8601 22.378 37.8601 23.978C37.8601 24.9981 37.2595 26.2253 36.3689 26.7276C36.0789 26.8881 35.7734 27.0175 35.4575 27.1159C34.132 26.8156 32.7753 26.6706 31.4187 26.681H25.464V27.9237H31.253C34.2925 27.9237 37.042 28.5502 38.7197 30C39.9883 31.0771 40.91 32.5062 41.3708 34.1062C40.8996 32.5735 39.9262 31.6466 39.0821 31.0098C37.8084 30.0466 36.3482 29.2699 32.2265 29.2699H22.8957V30.4816H32.0763C35.5922 30.4816 36.8815 30.9166 38.0673 31.7916C39.5844 32.9153 40.5061 34.2564 40.5061 36.1877C40.5061 38.0518 39.5689 39.4136 38.0465 40.5373C36.488 41.6868 34.1113 41.7178 33.143 41.7178H28.0427V42.945H31.8537C35.0433 42.945 37.1766 42.6706 39.02 41.3036C40.7495 40.0195 41.6711 38.3521 41.6711 36.2033C41.6867 37.358 41.4381 38.4971 40.9462 39.5431C40.4543 40.5839 39.7294 41.5004 38.8284 42.2201C37.0834 43.6648 33.9663 44.3017 30.8491 44.3017H20.809V45.534H30.9164C34.6808 45.534 37.6168 44.7159 39.7294 43.0797C41.842 41.4434 42.8983 39.1496 42.8983 36.1877C42.8931 33.2104 41.8679 30.8855 39.8278 29.2026C39.7864 29.1716 39.7449 29.1405 39.7035 29.1094Z" fill="white"/>
</g>
</g>
<defs>
<clipPath id="clip0_97_2789">
<rect width="60" height="60" fill="white"/>
</clipPath>
</defs>
</svg>
