<svg width="60" height="60" viewBox="0 0 60 60" fill="none" xmlns="http://www.w3.org/2000/svg">
<g clip-path="url(#clip0_98_2886)">
<circle cx="30" cy="30" r="29.5" fill="#2A2A33" stroke="#3E3E4B"/>
<path d="M37.3281 33.8316C39.45 33.8316 41.1701 32.0854 41.1701 29.9313C41.1701 27.7771 39.45 26.0309 37.3281 26.0309C35.2062 26.0309 33.4861 27.7771 33.4861 29.9313C33.4861 32.0854 35.2062 33.8316 37.3281 33.8316Z" fill="white"/>
<path d="M47.8329 35.6922L47.7204 35.5152L47.6895 35.4666C47.2683 34.8029 47.1404 34.6635 46.9375 34.356C44.1254 30.0153 45.7332 27.2256 46.997 25.8008C47.1514 25.6282 47.2948 25.4225 47.4271 25.2654C47.619 25.042 47.7844 24.7964 47.9189 24.5331L47.941 24.4955C48.188 23.9999 48.3181 23.4513 48.3181 22.896C48.3181 22.8783 48.3181 22.8606 48.3181 22.8451C48.1439 20.8982 46.5184 19.4071 44.5687 19.4071C42.6212 19.4071 40.9936 20.8982 40.8193 22.8451C40.8193 23.4712 40.9781 24.0862 41.2781 24.6349C41.3222 24.7256 41.5383 25.0132 41.5604 25.0619C41.6067 25.1349 41.6596 25.2013 41.7192 25.261C41.8493 25.4225 41.9905 25.5774 42.1404 25.7212C42.5132 26.1371 42.8396 26.595 43.1109 27.084C43.5542 27.9977 43.788 29.0065 43.788 30.0242C43.788 31.4733 43.3182 32.8848 42.4514 34.0462L41.5185 35.3913C41.4898 35.429 41.4611 35.471 41.4347 35.5108L41.4126 35.5418C41.0465 36.1236 40.8502 36.8006 40.8502 37.4887C40.8502 37.5108 40.8502 37.5329 40.8502 37.555C41.0245 39.5019 42.6499 40.993 44.5996 40.993C46.5471 40.993 48.1748 39.5019 48.349 37.555C48.349 36.9002 48.1725 36.2564 47.8417 35.6944L47.8329 35.6922Z" fill="white"/>
<path d="M33.1353 35.4665C32.714 34.8028 32.5861 34.6635 32.3832 34.3559C29.5712 30.0153 31.179 27.2255 32.4428 25.8008C32.5971 25.6282 32.7405 25.4225 32.8706 25.2654C33.0625 25.0419 33.2279 24.7964 33.3625 24.5331L33.3845 24.4955C33.6315 23.9911 33.7617 23.4336 33.7617 22.8716C33.7617 22.8628 33.7617 22.8539 33.7617 22.8451C33.7617 22.8229 33.7617 22.7964 33.7617 22.7743C33.7617 20.6902 32.0766 19 29.999 19C27.9214 19 26.2342 20.6902 26.2342 22.7765C26.2342 23.4291 26.4018 24.0707 26.7216 24.6371C26.7679 24.7278 26.9819 25.0154 27.0039 25.0641C27.0502 25.1371 27.1032 25.2034 27.1627 25.2632C27.2929 25.4247 27.434 25.5795 27.584 25.7233C27.9611 26.1393 28.2898 26.5972 28.5654 27.0861C29.0154 28.0043 29.2492 29.0175 29.2492 30.0418C29.2492 31.4843 28.7838 32.8914 27.9258 34.0484C27.3105 34.9179 26.6731 35.4842 25.7402 36.0086C21.8187 37.8846 18.645 35.2918 18.645 35.2918L18.3252 35.0285C18.087 34.8449 17.8841 34.617 17.7275 34.3604C14.9155 30.0175 16.5233 27.2277 17.787 25.8052C17.9414 25.6326 18.0848 25.4269 18.2149 25.2698C18.4068 25.0464 18.5722 24.8008 18.7068 24.5375L18.7288 24.4999C18.9891 23.9889 19.1236 23.4247 19.1236 22.8517C18.9494 20.9048 17.3239 19.4137 15.3742 19.4137C13.4267 19.4137 11.799 20.9048 11.6248 22.8517C11.6248 23.4778 11.7836 24.0928 12.0836 24.6415C12.1277 24.7322 12.3438 25.0198 12.3659 25.0685C12.4122 25.1415 12.4651 25.2079 12.5247 25.2676C12.6548 25.4291 12.7959 25.584 12.9459 25.7278C13.3165 26.1437 13.6407 26.6039 13.9097 27.0906C14.3553 28.0043 14.5868 29.0131 14.5868 30.0308C14.5868 31.4799 14.1171 32.8914 13.2503 34.0528L12.7717 34.732C12.0284 35.4444 11.6094 36.4311 11.6094 37.4599V37.5461C11.6469 39.6036 13.3209 41.254 15.372 41.254C16.3689 41.254 17.3239 40.858 18.0297 40.1523C18.2149 40.024 18.334 39.9333 18.5038 39.8249C22.8333 37.0041 25.6145 38.6169 27.037 39.8846C27.1495 39.9864 27.2708 40.0837 27.3899 40.1744C28.0935 40.8669 29.0396 41.254 30.0255 41.254C32.0833 41.254 33.7594 39.5948 33.7881 37.5307C33.7881 36.7364 33.5764 36.117 33.1353 35.4665Z" fill="white"/>
</g>
<defs>
<clipPath id="clip0_98_2886">
<rect width="60" height="60" fill="white"/>
</clipPath>
</defs>
</svg>
